<mxfile host="app.diagrams.net" modified="2024-04-21T11:43:32.045Z" agent="Mozilla/5.0 (Windows NT 10.0; Win64; x64) AppleWebKit/537.36 (KHTML, like Gecko) Chrome/124.0.0.0 Safari/537.36 Edg/124.0.0.0" version="24.2.5" etag="8dRHuCygHoklN-koXeh7" type="github">
  <diagram name="第 1 页" id="UY5nmwZwZ4JD_N2_jNvn">
    <mxGraphModel>
      <root>
        <mxCell id="0" />
        <mxCell id="1" parent="0" />
      </root>
    </mxGraphModel>
  </diagram>
</mxfile>
